<?xml version="1.0" encoding="UTF-8"?>
<!DOCTYPE svg PUBLIC "-//W3C//DTD SVG 1.1//EN" "http://www.w3.org/Graphics/SVG/1.1/DTD/svg11.dtd">
<svg xmlns="http://www.w3.org/2000/svg" version="1.1" width="100px" height="100px" style="shape-rendering:geometricPrecision; text-rendering:geometricPrecision; image-rendering:optimizeQuality; fill-rule:evenodd; clip-rule:evenodd" xmlns:xlink="http://www.w3.org/1999/xlink">
<g><path style="opacity:1" fill="#000000" d="M 45.5,17.5 C 48.1667,17.5 50.8333,17.5 53.5,17.5C 53.5,26.8333 53.5,36.1667 53.5,45.5C 62.8333,45.5 72.1667,45.5 81.5,45.5C 81.5,48.1667 81.5,50.8333 81.5,53.5C 72.1667,53.5 62.8333,53.5 53.5,53.5C 53.5,62.8333 53.5,72.1667 53.5,81.5C 50.8333,81.5 48.1667,81.5 45.5,81.5C 45.5,72.1667 45.5,62.8333 45.5,53.5C 36.1667,53.5 26.8333,53.5 17.5,53.5C 17.5,50.8333 17.5,48.1667 17.5,45.5C 26.8333,45.5 36.1667,45.5 45.5,45.5C 45.5,36.1667 45.5,26.8333 45.5,17.5 Z"/></g>
</svg>
